<svg xmlns="http://www.w3.org/2000/svg">
    <symbol id="icon-message" viewBox="0 0 24 24">
        <path d="M7.97 9.88601H16.03M7.97 14.114H13.718M12 21.25C14.0094 21.2496 15.964 20.5948 17.5682 19.3848C19.1724 18.1748 20.339 16.4753 20.8915 14.5434C21.444 12.6115 21.3524 10.5521 20.6305 8.6769C19.9086 6.80167 18.5957 5.21249 16.8904 4.14971C15.1851 3.08694 13.18 2.60837 11.1786 2.78638C9.17707 2.96439 7.28798 3.7893 5.79698 5.13636C4.30598 6.48341 3.29417 8.27934 2.91457 10.2525C2.53497 12.2258 2.80822 14.2689 3.693 16.073C3.801 16.293 3.837 16.541 3.782 16.779L2.966 20.315C2.943 20.4142 2.94564 20.5177 2.97367 20.6156C3.0017 20.7136 3.05421 20.8027 3.12624 20.8748C3.19827 20.9468 3.28745 20.9993 3.38538 21.0273C3.48331 21.0554 3.58677 21.058 3.686 21.035L7.221 20.218C7.45967 20.1657 7.70907 20.1975 7.927 20.308C9.19439 20.9304 10.588 21.2527 12 21.25Z" fill="none" stroke="currentColor" stroke-width="1.5" stroke-linecap="round" stroke-linejoin="round"/>
    </symbol>

    <symbol id="icon-users" viewBox="0 0 24 24">
        <path d="M1 20V19C1 17.1435 1.7375 15.363 3.05025 14.0503C4.36301 12.7375 6.14348 12 8 12C9.85652 12 11.637 12.7375 12.9497 14.0503C14.2625 15.363 15 17.1435 15 19V20" fill="none" stroke="currentColor" stroke-width="1.5" stroke-linecap="round"/>
        <path d="M13 14C13 12.6739 13.5268 11.4021 14.4645 10.4645C15.4021 9.52678 16.6739 9 18 9C18.6566 9 19.3068 9.12933 19.9134 9.3806C20.52 9.63188 21.0712 10.0002 21.5355 10.4645C21.9998 10.9288 22.3681 11.48 22.6194 12.0866C22.8707 12.6932 23 13.3434 23 14V14.5" fill="none" stroke="currentColor" stroke-width="1.5" stroke-linecap="round"/>
        <path d="M8 12C9.06087 12 10.0783 11.5786 10.8284 10.8284C11.5786 10.0783 12 9.06087 12 8C12 6.93913 11.5786 5.92172 10.8284 5.17157C10.0783 4.42143 9.06087 4 8 4C6.93913 4 5.92172 4.42143 5.17157 5.17157C4.42143 5.92172 4 6.93913 4 8C4 9.06087 4.42143 10.0783 5.17157 10.8284C5.92172 11.5786 6.93913 12 8 12ZM18 9C18.7956 9 19.5587 8.68393 20.1213 8.12132C20.6839 7.55871 21 6.79565 21 6C21 5.20435 20.6839 4.44129 20.1213 3.87868C19.5587 3.31607 18.7956 3 18 3C17.2044 3 16.4413 3.31607 15.8787 3.87868C15.3161 4.44129 15 5.20435 15 6C15 6.79565 15.3161 7.55871 15.8787 8.12132C16.4413 8.68393 17.2044 9 18 9Z" fill="none" stroke="currentColor" stroke-width="1.5" stroke-linecap="round" stroke-linejoin="round"/>
    </symbol>

    <symbol id="icon-secure" viewBox="0 0 24 24">
        <path d="M15 15V12.75C15 11.9543 14.6839 11.1913 14.1213 10.6286C13.5587 10.066 12.7957 9.74997 12 9.74997C11.2044 9.74997 10.4413 10.066 9.87868 10.6286C9.31607 11.1913 9 11.9543 9 12.75V15C8.60236 15.0006 8.22117 15.1588 7.94 15.44C7.65882 15.7211 7.5006 16.1023 7.5 16.5V21C7.5006 21.3976 7.65882 21.7788 7.94 22.06C8.22117 22.3411 8.60236 22.4994 9 22.5H15C15.3976 22.4994 15.7788 22.3411 16.06 22.06C16.3412 21.7788 16.4994 21.3976 16.5 21V16.5C16.4994 16.1023 16.3412 15.7211 16.06 15.44C15.7788 15.1588 15.3976 15.0006 15 15ZM10.5 12.75C10.5 12.3521 10.658 11.9706 10.9393 11.6893C11.2206 11.408 11.6022 11.25 12 11.25C12.3978 11.25 12.7794 11.408 13.0607 11.6893C13.342 11.9706 13.5 12.3521 13.5 12.75V15H10.5V12.75ZM9 21V16.5H15V21H9ZM4.57875 5.32872L5.63925 6.38922C6.47386 5.55266 7.46528 4.88896 8.55676 4.43611C9.64823 3.98326 10.8183 3.75017 12 3.75017C13.1817 3.75017 14.3518 3.98326 15.4432 4.43611C16.5347 4.88896 17.5261 5.55266 18.3608 6.38922L19.4213 5.32872C18.4474 4.35292 17.2906 3.57877 16.0172 3.05057C14.7437 2.52237 13.3786 2.25049 12 2.25049C10.6214 2.25049 9.25627 2.52237 7.98284 3.05057C6.7094 3.57877 5.55264 4.35292 4.57875 5.32872Z" fill="currentColor"/>
        <path d="M12 6C11.1137 5.99955 10.236 6.17425 9.41743 6.51404C8.59884 6.85383 7.85546 7.35203 7.23 7.98L8.289 9.03975C8.77595 8.55186 9.35433 8.16478 9.99105 7.90068C10.6278 7.63658 11.3103 7.50064 11.9996 7.50064C12.6889 7.50064 13.3715 7.63658 14.0082 7.90068C14.6449 8.16478 15.2233 8.55186 15.7103 9.03975L16.7708 7.97925C16.1451 7.35132 15.4016 6.85321 14.5829 6.51355C13.7642 6.17388 12.8864 5.99936 12 6Z" fill="currentColor"/>
    </symbol>

    <symbol id="icon-flesh" viewBox="0 0 24 24">
        <path d="M3.42239 0.83C3.50908 0.586996 3.66884 0.376769 3.87975 0.228166C4.09066 0.0795617 4.34239 -0.000138616 4.60039 1.80976e-07H11.0534C11.2514 -7.90131e-06 11.4466 0.0470407 11.6229 0.137269C11.7992 0.227498 11.9516 0.358325 12.0674 0.51897C12.1832 0.679615 12.2592 0.865481 12.2891 1.06125C12.319 1.25703 12.302 1.4571 12.2394 1.645L10.7874 6H14.7474C15.8504 6 16.4124 7.327 15.6444 8.12L4.58339 19.536C3.52939 20.624 1.71139 19.642 2.04239 18.164L3.31239 12.496L1.74239 12.49C1.46274 12.4888 1.18745 12.4206 0.939594 12.2911C0.691734 12.1616 0.47852 11.9745 0.317814 11.7457C0.157109 11.5168 0.0535921 11.2528 0.015937 10.9757C-0.0217181 10.6985 0.00758512 10.4165 0.101391 10.153L3.42239 0.83ZM4.77639 1.5L1.51439 10.657C1.50117 10.6946 1.49711 10.7347 1.50255 10.7742C1.50799 10.8136 1.52277 10.8512 1.54566 10.8837C1.56855 10.9163 1.59889 10.943 1.63415 10.9614C1.66941 10.9799 1.70858 10.9897 1.74839 10.99L4.25039 11C4.36257 11.0004 4.47323 11.026 4.57421 11.0749C4.6752 11.1237 4.76393 11.1946 4.83388 11.2823C4.90383 11.37 4.95322 11.4723 4.9784 11.5816C5.00358 11.691 5.00392 11.8045 4.97939 11.914L3.50639 18.492L14.1564 7.5H9.74639C9.6277 7.49975 9.51076 7.47134 9.40519 7.41709C9.29962 7.36285 9.20843 7.28432 9.13912 7.18797C9.06981 7.09162 9.02436 6.98019 9.0065 6.86285C8.98864 6.74551 8.99888 6.62561 9.03639 6.513L10.7064 1.5H4.77639Z" fill="currentColor"/>
    </symbol>

    <symbol id="icon-cloud" viewBox="0 0 24 24">
        <path d="M3.25 24.375C3.25 25.272 2.522 26 1.625 26C0.728 26 0 25.272 0 24.375C0 23.478 0.728 22.75 1.625 22.75C2.522 22.75 3.25 23.478 3.25 24.375ZM6.5 18.4167C5.30292 18.4167 4.33333 19.3863 4.33333 20.5833C4.33333 21.7804 5.30292 22.75 6.5 22.75C7.69708 22.75 8.66667 21.7804 8.66667 20.5833C8.66667 19.3863 7.69708 18.4167 6.5 18.4167ZM17.1654 16.8783C17.9227 17.1806 18.7059 17.3333 19.5 17.3333C23.0848 17.3333 26 14.4181 26 10.8333C26 7.87258 24.0251 5.34192 21.216 4.58033C20.1998 1.8525 17.5803 0 14.625 0C12.5894 0 10.6687 0.88725 9.33833 2.40825C8.77067 2.249 8.18242 2.16667 7.58333 2.16667C3.99858 2.16667 1.08333 5.08192 1.08333 8.66667C1.08333 12.1788 3.88375 15.0497 7.36883 15.1634C8.51933 17.1622 10.6535 18.4167 13 18.4167C14.5448 18.4167 15.9976 17.8761 17.1654 16.8783Z" fill="currentColor"/>
    </symbol>

    <symbol id="icon-email" viewBox="0 0 24 24">
        <path d="M21 4.5H3C2.60218 4.5 2.22064 4.65804 1.93934 4.93934C1.65804 5.22064 1.5 5.60218 1.5 6V18C1.5 18.3978 1.65804 18.7794 1.93934 19.0607C2.22064 19.342 2.60218 19.5 3 19.5H21C21.3978 19.5 21.7794 19.342 22.0607 19.0607C22.342 18.7794 22.5 18.3978 22.5 18V6C22.5 5.60218 22.342 5.22064 22.0607 4.93934C21.7794 4.65804 21.3978 4.5 21 4.5ZM19.35 6L12 11.085L4.65 6H19.35ZM3 18V6.6825L11.5725 12.615C11.698 12.7021 11.8472 12.7488 12 12.7488C12.1528 12.7488 12.302 12.7021 12.4275 12.615L21 6.6825V18H3Z" fill="currentColor"/>
    </symbol>

    <symbol id="icon-lock" viewBox="0 0 24 24" >
        <path d="M3.75 7.75V4.75C3.75 2.54 5.54 0.75 7.75 0.75C9.96 0.75 11.75 2.54 11.75 4.75V7.75M7.75 12.75C8.01522 12.75 8.26957 12.6446 8.45711 12.4571C8.64464 12.2696 8.75 12.0152 8.75 11.75C8.75 11.4848 8.64464 11.2304 8.45711 11.0429C8.26957 10.8554 8.01522 10.75 7.75 10.75C7.48478 10.75 7.23043 10.8554 7.04289 11.0429C6.85536 11.2304 6.75 11.4848 6.75 11.75C6.75 12.0152 6.85536 12.2696 7.04289 12.4571C7.23043 12.6446 7.48478 12.75 7.75 12.75ZM7.75 12.75V15.75M2.35 7.75H13.15C14.03 7.75 14.75 8.47 14.75 9.35V16.35C14.75 17.67 13.67 18.75 12.35 18.75H3.15C1.83 18.75 0.75 17.67 0.75 16.35V9.35C0.75 8.47 1.47 7.75 2.35 7.75Z" stroke="currentColor" fill="none" stroke-width="1.5" stroke-miterlimit="10" stroke-linecap="round" stroke-linejoin="round"/>
    </symbol>

    <symbol id="icon-eye-open" viewBox="0 0 24 24">
        <path fill-rule="evenodd" clip-rule="evenodd" d="M6 6.75C6 5.75544 6.39509 4.80161 7.09835 4.09835C7.80161 3.39509 8.75544 3 9.75 3C10.7446 3 11.6984 3.39509 12.4017 4.09835C13.1049 4.80161 13.5 5.75544 13.5 6.75C13.5 7.74456 13.1049 8.69839 12.4017 9.40165C11.6984 10.1049 10.7446 10.5 9.75 10.5C8.75544 10.5 7.80161 10.1049 7.09835 9.40165C6.39509 8.69839 6 7.74456 6 6.75ZM9.75 4.5C9.15326 4.5 8.58097 4.73705 8.15901 5.15901C7.73705 5.58097 7.5 6.15326 7.5 6.75C7.5 7.34674 7.73705 7.91903 8.15901 8.34099C8.58097 8.76295 9.15326 9 9.75 9C10.3467 9 10.919 8.76295 11.341 8.34099C11.7629 7.91903 12 7.34674 12 6.75C12 6.15326 11.7629 5.58097 11.341 5.15901C10.919 4.73705 10.3467 4.5 9.75 4.5Z" fill="currentColor"/>
        <path fill-rule="evenodd" clip-rule="evenodd" d="M2.073 5.396C1.654 6 1.5 6.473 1.5 6.75C1.5 7.027 1.654 7.5 2.073 8.104C2.479 8.687 3.081 9.32 3.843 9.905C5.37 11.077 7.463 12 9.75 12C12.037 12 14.13 11.077 15.657 9.905C16.419 9.32 17.021 8.687 17.427 8.104C17.846 7.5 18 7.027 18 6.75C18 6.473 17.846 6 17.427 5.396C17.021 4.813 16.419 4.18 15.657 3.595C14.13 2.423 12.037 1.5 9.75 1.5C7.463 1.5 5.37 2.423 3.843 3.595C3.081 4.18 2.479 4.813 2.073 5.396ZM2.929 2.405C4.66 1.077 7.066 0 9.75 0C12.434 0 14.84 1.077 16.57 2.405C17.437 3.07 18.153 3.812 18.659 4.541C19.151 5.25 19.5 6.027 19.5 6.75C19.5 7.473 19.15 8.25 18.659 8.959C18.153 9.688 17.437 10.429 16.571 11.095C14.841 12.423 12.434 13.5 9.75 13.5C7.066 13.5 4.66 12.423 2.93 11.095C2.063 10.43 1.347 9.688 0.841 8.959C0.35 8.25 0 7.473 0 6.75C0 6.027 0.35 5.25 0.841 4.541C1.347 3.812 2.063 3.071 2.929 2.405Z" fill="currentColor"/>
    </symbol>

    <symbol id="icon-user" viewBox="0 0 24 24">
        <path d="M0.75 16.75V15.75C0.75 13.8935 1.4875 12.113 2.80025 10.8003C4.11301 9.4875 5.89348 8.75 7.75 8.75M7.75 8.75C9.60652 8.75 11.387 9.4875 12.6997 10.8003C14.0125 12.113 14.75 13.8935 14.75 15.75V16.75M7.75 8.75C8.81087 8.75 9.82828 8.32857 10.5784 7.57843C11.3286 6.82828 11.75 5.81087 11.75 4.75C11.75 3.68913 11.3286 2.67172 10.5784 1.92157C9.82828 1.17143 8.81087 0.75 7.75 0.75C6.68913 0.75 5.67172 1.17143 4.92157 1.92157C4.17143 2.67172 3.75 3.68913 3.75 4.75C3.75 5.81087 4.17143 6.82828 4.92157 7.57843C5.67172 8.32857 6.68913 8.75 7.75 8.75Z" stroke="currentColor" fill="none" stroke-width="1.5" stroke-linecap="round" stroke-linejoin="round"/>
    </symbol>

</svg>