<svg xmlns="http://www.w3.org/2000/svg">
    <symbol id="icon-message" viewBox="0 0 24 24">
        <path d="M7.97 9.88601H16.03M7.97 14.114H13.718M12 21.25C14.0094 21.2496 15.964 20.5948 17.5682 19.3848C19.1724 18.1748 20.339 16.4753 20.8915 14.5434C21.444 12.6115 21.3524 10.5521 20.6305 8.6769C19.9086 6.80167 18.5957 5.21249 16.8904 4.14971C15.1851 3.08694 13.18 2.60837 11.1786 2.78638C9.17707 2.96439 7.28798 3.7893 5.79698 5.13636C4.30598 6.48341 3.29417 8.27934 2.91457 10.2525C2.53497 12.2258 2.80822 14.2689 3.693 16.073C3.801 16.293 3.837 16.541 3.782 16.779L2.966 20.315C2.943 20.4142 2.94564 20.5177 2.97367 20.6156C3.0017 20.7136 3.05421 20.8027 3.12624 20.8748C3.19827 20.9468 3.28745 20.9993 3.38538 21.0273C3.48331 21.0554 3.58677 21.058 3.686 21.035L7.221 20.218C7.45967 20.1657 7.70907 20.1975 7.927 20.308C9.19439 20.9304 10.588 21.2527 12 21.25Z" fill="none" stroke="currentColor" stroke-width="1.5" stroke-linecap="round" stroke-linejoin="round"/>
    </symbol>

    <symbol id="icon-users" viewBox="0 0 24 24">
        <path d="M1 20V19C1 17.1435 1.7375 15.363 3.05025 14.0503C4.36301 12.7375 6.14348 12 8 12C9.85652 12 11.637 12.7375 12.9497 14.0503C14.2625 15.363 15 17.1435 15 19V20" fill="none" stroke="currentColor" stroke-width="1.5" stroke-linecap="round"/>
        <path d="M13 14C13 12.6739 13.5268 11.4021 14.4645 10.4645C15.4021 9.52678 16.6739 9 18 9C18.6566 9 19.3068 9.12933 19.9134 9.3806C20.52 9.63188 21.0712 10.0002 21.5355 10.4645C21.9998 10.9288 22.3681 11.48 22.6194 12.0866C22.8707 12.6932 23 13.3434 23 14V14.5" fill="none" stroke="currentColor" stroke-width="1.5" stroke-linecap="round"/>
        <path d="M8 12C9.06087 12 10.0783 11.5786 10.8284 10.8284C11.5786 10.0783 12 9.06087 12 8C12 6.93913 11.5786 5.92172 10.8284 5.17157C10.0783 4.42143 9.06087 4 8 4C6.93913 4 5.92172 4.42143 5.17157 5.17157C4.42143 5.92172 4 6.93913 4 8C4 9.06087 4.42143 10.0783 5.17157 10.8284C5.92172 11.5786 6.93913 12 8 12ZM18 9C18.7956 9 19.5587 8.68393 20.1213 8.12132C20.6839 7.55871 21 6.79565 21 6C21 5.20435 20.6839 4.44129 20.1213 3.87868C19.5587 3.31607 18.7956 3 18 3C17.2044 3 16.4413 3.31607 15.8787 3.87868C15.3161 4.44129 15 5.20435 15 6C15 6.79565 15.3161 7.55871 15.8787 8.12132C16.4413 8.68393 17.2044 9 18 9Z" fill="none" stroke="currentColor" stroke-width="1.5" stroke-linecap="round" stroke-linejoin="round"/>
    </symbol>

    <symbol id="icon-secure" viewBox="0 0 24 24">
        <path d="M15 15V12.75C15 11.9543 14.6839 11.1913 14.1213 10.6286C13.5587 10.066 12.7957 9.74997 12 9.74997C11.2044 9.74997 10.4413 10.066 9.87868 10.6286C9.31607 11.1913 9 11.9543 9 12.75V15C8.60236 15.0006 8.22117 15.1588 7.94 15.44C7.65882 15.7211 7.5006 16.1023 7.5 16.5V21C7.5006 21.3976 7.65882 21.7788 7.94 22.06C8.22117 22.3411 8.60236 22.4994 9 22.5H15C15.3976 22.4994 15.7788 22.3411 16.06 22.06C16.3412 21.7788 16.4994 21.3976 16.5 21V16.5C16.4994 16.1023 16.3412 15.7211 16.06 15.44C15.7788 15.1588 15.3976 15.0006 15 15ZM10.5 12.75C10.5 12.3521 10.658 11.9706 10.9393 11.6893C11.2206 11.408 11.6022 11.25 12 11.25C12.3978 11.25 12.7794 11.408 13.0607 11.6893C13.342 11.9706 13.5 12.3521 13.5 12.75V15H10.5V12.75ZM9 21V16.5H15V21H9ZM4.57875 5.32872L5.63925 6.38922C6.47386 5.55266 7.46528 4.88896 8.55676 4.43611C9.64823 3.98326 10.8183 3.75017 12 3.75017C13.1817 3.75017 14.3518 3.98326 15.4432 4.43611C16.5347 4.88896 17.5261 5.55266 18.3608 6.38922L19.4213 5.32872C18.4474 4.35292 17.2906 3.57877 16.0172 3.05057C14.7437 2.52237 13.3786 2.25049 12 2.25049C10.6214 2.25049 9.25627 2.52237 7.98284 3.05057C6.7094 3.57877 5.55264 4.35292 4.57875 5.32872Z" fill="currentColor"/>
        <path d="M12 6C11.1137 5.99955 10.236 6.17425 9.41743 6.51404C8.59884 6.85383 7.85546 7.35203 7.23 7.98L8.289 9.03975C8.77595 8.55186 9.35433 8.16478 9.99105 7.90068C10.6278 7.63658 11.3103 7.50064 11.9996 7.50064C12.6889 7.50064 13.3715 7.63658 14.0082 7.90068C14.6449 8.16478 15.2233 8.55186 15.7103 9.03975L16.7708 7.97925C16.1451 7.35132 15.4016 6.85321 14.5829 6.51355C13.7642 6.17388 12.8864 5.99936 12 6Z" fill="currentColor"/>
    </symbol>

    <symbol id="icon-flesh" viewBox="0 0 24 24">
        <path d="M3.42239 0.83C3.50908 0.586996 3.66884 0.376769 3.87975 0.228166C4.09066 0.0795617 4.34239 -0.000138616 4.60039 1.80976e-07H11.0534C11.2514 -7.90131e-06 11.4466 0.0470407 11.6229 0.137269C11.7992 0.227498 11.9516 0.358325 12.0674 0.51897C12.1832 0.679615 12.2592 0.865481 12.2891 1.06125C12.319 1.25703 12.302 1.4571 12.2394 1.645L10.7874 6H14.7474C15.8504 6 16.4124 7.327 15.6444 8.12L4.58339 19.536C3.52939 20.624 1.71139 19.642 2.04239 18.164L3.31239 12.496L1.74239 12.49C1.46274 12.4888 1.18745 12.4206 0.939594 12.2911C0.691734 12.1616 0.47852 11.9745 0.317814 11.7457C0.157109 11.5168 0.0535921 11.2528 0.015937 10.9757C-0.0217181 10.6985 0.00758512 10.4165 0.101391 10.153L3.42239 0.83ZM4.77639 1.5L1.51439 10.657C1.50117 10.6946 1.49711 10.7347 1.50255 10.7742C1.50799 10.8136 1.52277 10.8512 1.54566 10.8837C1.56855 10.9163 1.59889 10.943 1.63415 10.9614C1.66941 10.9799 1.70858 10.9897 1.74839 10.99L4.25039 11C4.36257 11.0004 4.47323 11.026 4.57421 11.0749C4.6752 11.1237 4.76393 11.1946 4.83388 11.2823C4.90383 11.37 4.95322 11.4723 4.9784 11.5816C5.00358 11.691 5.00392 11.8045 4.97939 11.914L3.50639 18.492L14.1564 7.5H9.74639C9.6277 7.49975 9.51076 7.47134 9.40519 7.41709C9.29962 7.36285 9.20843 7.28432 9.13912 7.18797C9.06981 7.09162 9.02436 6.98019 9.0065 6.86285C8.98864 6.74551 8.99888 6.62561 9.03639 6.513L10.7064 1.5H4.77639Z" fill="currentColor"/>
    </symbol>

    <symbol id="icon-cloud" viewBox="0 0 24 24">
        <path d="M3.25 24.375C3.25 25.272 2.522 26 1.625 26C0.728 26 0 25.272 0 24.375C0 23.478 0.728 22.75 1.625 22.75C2.522 22.75 3.25 23.478 3.25 24.375ZM6.5 18.4167C5.30292 18.4167 4.33333 19.3863 4.33333 20.5833C4.33333 21.7804 5.30292 22.75 6.5 22.75C7.69708 22.75 8.66667 21.7804 8.66667 20.5833C8.66667 19.3863 7.69708 18.4167 6.5 18.4167ZM17.1654 16.8783C17.9227 17.1806 18.7059 17.3333 19.5 17.3333C23.0848 17.3333 26 14.4181 26 10.8333C26 7.87258 24.0251 5.34192 21.216 4.58033C20.1998 1.8525 17.5803 0 14.625 0C12.5894 0 10.6687 0.88725 9.33833 2.40825C8.77067 2.249 8.18242 2.16667 7.58333 2.16667C3.99858 2.16667 1.08333 5.08192 1.08333 8.66667C1.08333 12.1788 3.88375 15.0497 7.36883 15.1634C8.51933 17.1622 10.6535 18.4167 13 18.4167C14.5448 18.4167 15.9976 17.8761 17.1654 16.8783Z" fill="currentColor"/>
    </symbol>

    <symbol id="icon-email" viewBox="0 0 24 24">
        <path d="M21 4.5H3C2.60218 4.5 2.22064 4.65804 1.93934 4.93934C1.65804 5.22064 1.5 5.60218 1.5 6V18C1.5 18.3978 1.65804 18.7794 1.93934 19.0607C2.22064 19.342 2.60218 19.5 3 19.5H21C21.3978 19.5 21.7794 19.342 22.0607 19.0607C22.342 18.7794 22.5 18.3978 22.5 18V6C22.5 5.60218 22.342 5.22064 22.0607 4.93934C21.7794 4.65804 21.3978 4.5 21 4.5ZM19.35 6L12 11.085L4.65 6H19.35ZM3 18V6.6825L11.5725 12.615C11.698 12.7021 11.8472 12.7488 12 12.7488C12.1528 12.7488 12.302 12.7021 12.4275 12.615L21 6.6825V18H3Z" fill="currentColor"/>
    </symbol>

    <symbol id="icon-lock" viewBox="0 0 24 24">
        <path d="M8 10V7C8 4.79 9.79 3 12 3C14.21 3 16 4.79 16 7V10M12 15C12.2652 15 12.5196 14.8946 12.7071 14.7071C12.8946 14.5196 13 14.2652 13 14C13 13.7348 12.8946 13.4804 12.7071 13.2929C12.5196 13.1054 12.2652 13 12 13C11.7348 13 11.4804 13.1054 11.2929 13.2929C11.1054 13.4804 11 13.7348 11 14C11 14.2652 11.1054 14.5196 11.2929 14.7071C11.4804 14.8946 11.7348 15 12 15ZM12 15V18M6.6 10H17.4C18.28 10 19 10.72 19 11.6V18.6C19 19.92 17.92 21 16.6 21H7.4C6.08 21 5 19.92 5 18.6V11.6C5 10.72 5.72 10 6.6 10Z" stroke="currentColor" fill="none" stroke-width="1.33333" stroke-miterlimit="10" stroke-linecap="round" stroke-linejoin="round"/>
    </symbol>


    <symbol id="icon-eye-open" viewBox="0 0 24 24">
        <path d="M23.4353 11.1962C23.4025 11.1222 22.6084 9.36062 20.8431 7.59531C18.4909 5.24312 15.52 4 12.25 4C8.97999 4 6.00905 5.24312 3.65687 7.59531C1.89155 9.36062 1.09374 11.125 1.06468 11.1962C1.02203 11.2922 1 11.396 1 11.5009C1 11.6059 1.02203 11.7097 1.06468 11.8056C1.09749 11.8797 1.89155 13.6403 3.65687 15.4056C6.00905 17.7569 8.97999 19 12.25 19C15.52 19 18.4909 17.7569 20.8431 15.4056C22.6084 13.6403 23.4025 11.8797 23.4353 11.8056C23.4779 11.7097 23.5 11.6059 23.5 11.5009C23.5 11.396 23.4779 11.2922 23.4353 11.1962ZM12.25 17.5C9.36437 17.5 6.84343 16.4509 4.75655 14.3828C3.90028 13.5313 3.17179 12.5603 2.59374 11.5C3.17164 10.4396 3.90014 9.4686 4.75655 8.61719C6.84343 6.54906 9.36437 5.5 12.25 5.5C15.1356 5.5 17.6566 6.54906 19.7434 8.61719C20.6014 9.4684 21.3315 10.4394 21.9109 11.5C21.235 12.7619 18.2903 17.5 12.25 17.5ZM12.25 7C11.36 7 10.4899 7.26392 9.74993 7.75839C9.0099 8.25285 8.43313 8.95566 8.09253 9.77792C7.75194 10.6002 7.66282 11.505 7.83646 12.3779C8.01009 13.2508 8.43867 14.0526 9.06801 14.682C9.69735 15.3113 10.4992 15.7399 11.3721 15.9135C12.245 16.0872 13.1498 15.9981 13.9721 15.6575C14.7943 15.3169 15.4971 14.7401 15.9916 14.0001C16.4861 13.26 16.75 12.39 16.75 11.5C16.7488 10.3069 16.2742 9.16303 15.4306 8.31939C14.587 7.47575 13.4431 7.00124 12.25 7ZM12.25 14.5C11.6566 14.5 11.0766 14.3241 10.5833 13.9944C10.0899 13.6648 9.70542 13.1962 9.47835 12.6481C9.25129 12.0999 9.19188 11.4967 9.30764 10.9147C9.42339 10.3328 9.70911 9.79824 10.1287 9.37868C10.5482 8.95912 11.0828 8.6734 11.6647 8.55764C12.2467 8.44189 12.8499 8.5013 13.398 8.72836C13.9462 8.95542 14.4148 9.33994 14.7444 9.83329C15.074 10.3266 15.25 10.9067 15.25 11.5C15.25 12.2956 14.9339 13.0587 14.3713 13.6213C13.8087 14.1839 13.0456 14.5 12.25 14.5Z" fill="currentColor"/>
    </symbol>

    <symbol id="icon-eye-close" viewBox="0 0 24 24">
        <path d="M21.1513 14.447C21.0657 14.4959 20.9712 14.5274 20.8734 14.5397C20.7755 14.552 20.6762 14.5449 20.5811 14.5187C20.486 14.4926 20.397 14.448 20.3192 14.3874C20.2414 14.3269 20.1763 14.2515 20.1276 14.1658L18.3463 11.0533C17.3107 11.7535 16.1684 12.281 14.9638 12.6152L15.5141 15.917C15.5304 16.0142 15.5273 16.1137 15.5051 16.2097C15.4829 16.3057 15.4419 16.3964 15.3846 16.4766C15.3273 16.5568 15.2548 16.6249 15.1712 16.677C15.0876 16.7292 14.9945 16.7643 14.8973 16.7805C14.8573 16.787 14.8168 16.7905 14.7763 16.7908C14.5989 16.7905 14.4273 16.7274 14.292 16.6125C14.1568 16.4977 14.0666 16.3386 14.0376 16.1636L13.4966 12.9217C12.3559 13.0805 11.1986 13.0805 10.0579 12.9217L9.51694 16.1636C9.48784 16.339 9.3974 16.4983 9.26175 16.6131C9.12611 16.728 8.95407 16.791 8.77632 16.7908C8.73486 16.7906 8.69348 16.7872 8.65257 16.7805C8.55535 16.7643 8.46227 16.7292 8.37864 16.677C8.29501 16.6249 8.22248 16.5568 8.16519 16.4766C8.1079 16.3964 8.06698 16.3057 8.04476 16.2097C8.02254 16.1137 8.01946 16.0142 8.03569 15.917L8.58882 12.6152C7.38472 12.2799 6.24301 11.7515 5.20819 11.0505L3.43257 14.1658C3.33311 14.3391 3.16889 14.4658 2.97602 14.518C2.78315 14.5702 2.57743 14.5437 2.40413 14.4442C2.23083 14.3448 2.10413 14.1805 2.05192 13.9877C1.9997 13.7948 2.02624 13.5891 2.12569 13.4158L4.00069 10.1345C3.3421 9.56555 2.73649 8.93798 2.19132 8.25954C2.12333 8.18363 2.07153 8.09466 2.03907 7.99806C2.00661 7.90146 1.99417 7.79926 2.00252 7.6977C2.01087 7.59613 2.03984 7.49734 2.08764 7.40734C2.13544 7.31734 2.20109 7.23803 2.28056 7.17424C2.36004 7.11046 2.45168 7.06354 2.54989 7.03635C2.6481 7.00916 2.75083 7.00227 2.85179 7.0161C2.95275 7.02993 3.04984 7.06419 3.13712 7.11679C3.2244 7.16939 3.30005 7.23923 3.35944 7.32204C4.91569 9.24766 7.63819 11.5408 11.7763 11.5408C15.9144 11.5408 18.6369 9.24485 20.1932 7.32204C20.2519 7.23753 20.3274 7.16602 20.4149 7.11194C20.5025 7.05786 20.6002 7.02237 20.7021 7.00768C20.8039 6.99299 20.9077 6.99942 21.0069 7.02656C21.1062 7.0537 21.1988 7.10098 21.279 7.16545C21.3592 7.22992 21.4253 7.3102 21.4731 7.40131C21.521 7.49241 21.5495 7.59238 21.5571 7.69501C21.5646 7.79763 21.551 7.90071 21.517 7.99783C21.483 8.09495 21.4294 8.18403 21.3594 8.25954C20.8143 8.93798 20.2087 9.56555 19.5501 10.1345L21.4251 13.4158C21.4754 13.5013 21.5083 13.596 21.5217 13.6943C21.5352 13.7926 21.529 13.8927 21.5036 13.9886C21.4781 14.0845 21.4339 14.1744 21.3734 14.2531C21.3129 14.3318 21.2374 14.3977 21.1513 14.447Z" fill="currentColor"/>
    </symbol>

    <symbol id="icon-user" viewBox="0 0 24 24">
        <path d="M19.4082 17.6276C17.9803 15.1591 15.78 13.3891 13.2122 12.5501C14.4824 11.7939 15.4692 10.6417 16.0212 9.27048C16.5731 7.89922 16.6597 6.38468 16.2676 4.95945C15.8755 3.53422 15.0264 2.27711 13.8506 1.38117C12.6749 0.485228 11.2376 0 9.75941 0C8.28122 0 6.84391 0.485228 5.66818 1.38117C4.49246 2.27711 3.64334 3.53422 3.25123 4.95945C2.85911 6.38468 2.94569 7.89922 3.49765 9.27048C4.04961 10.6417 5.03644 11.7939 6.3066 12.5501C3.73878 13.3882 1.53847 15.1582 0.110659 17.6276C0.0582987 17.7129 0.0235684 17.8079 0.00851736 17.9069C-0.00653367 18.006 -0.00160057 18.107 0.0230256 18.2041C0.0476518 18.3011 0.0914723 18.3923 0.151901 18.4722C0.212331 18.552 0.288144 18.619 0.37487 18.6691C0.461595 18.7192 0.557476 18.7514 0.656854 18.7638C0.756232 18.7763 0.857095 18.7687 0.953492 18.7415C1.04989 18.7143 1.13987 18.6681 1.21812 18.6056C1.29637 18.5431 1.3613 18.4656 1.4091 18.3776C3.17535 15.3251 6.29722 13.5026 9.75941 13.5026C13.2216 13.5026 16.3435 15.3251 18.1097 18.3776C18.1575 18.4656 18.2225 18.5431 18.3007 18.6056C18.379 18.6681 18.4689 18.7143 18.5653 18.7415C18.6617 18.7687 18.7626 18.7763 18.862 18.7638C18.9613 18.7514 19.0572 18.7192 19.1439 18.6691C19.2307 18.619 19.3065 18.552 19.3669 18.4722C19.4273 18.3923 19.4712 18.3011 19.4958 18.2041C19.5204 18.107 19.5254 18.006 19.5103 17.9069C19.4952 17.8079 19.4605 17.7129 19.4082 17.6276ZM4.50941 6.75255C4.50941 5.7142 4.81732 4.69917 5.39419 3.83581C5.97107 2.97245 6.79101 2.29954 7.75032 1.90218C8.70963 1.50482 9.76523 1.40086 10.7836 1.60343C11.802 1.806 12.7375 2.30601 13.4717 3.04024C14.2059 3.77447 14.706 4.70993 14.9085 5.72833C15.1111 6.74673 15.0071 7.80233 14.6098 8.76164C14.2124 9.72095 13.5395 10.5409 12.6762 11.1178C11.8128 11.6946 10.7978 12.0026 9.75941 12.0026C8.36748 12.0011 7.03299 11.4475 6.04874 10.4632C5.0645 9.47897 4.5109 8.14448 4.50941 6.75255Z" fill="currentColor"/>
    </symbol>

    <symbol id="icon-plus" viewBox="0 0 24 24">
        <path d="M18 9C18 9.19891 17.921 9.38968 17.7803 9.53033C17.6397 9.67098 17.4489 9.75 17.25 9.75H9.75V17.25C9.75 17.4489 9.67098 17.6397 9.53033 17.7803C9.38968 17.921 9.19891 18 9 18C8.80109 18 8.61032 17.921 8.46967 17.7803C8.32902 17.6397 8.25 17.4489 8.25 17.25V9.75H0.75C0.551088 9.75 0.360322 9.67098 0.21967 9.53033C0.0790178 9.38968 0 9.19891 0 9C0 8.80109 0.0790178 8.61032 0.21967 8.46967C0.360322 8.32902 0.551088 8.25 0.75 8.25H8.25V0.75C8.25 0.551088 8.32902 0.360322 8.46967 0.21967C8.61032 0.0790178 8.80109 0 9 0C9.19891 0 9.38968 0.0790178 9.53033 0.21967C9.67098 0.360322 9.75 0.551088 9.75 0.75V8.25H17.25C17.4489 8.25 17.6397 8.32902 17.7803 8.46967C17.921 8.61032 18 8.80109 18 9Z" fill="currentColor"/>
    </symbol>



    <symbol id="icon-search" viewBox="0 0 24 24">
        <path d="M18.75 18.75L14.75 14.75M16.75 8.75C16.75 10.8717 15.9071 12.9066 14.4069 14.4069C12.9066 15.9071 10.8717 16.75 8.75 16.75C6.62827 16.75 4.59344 15.9071 3.09315 14.4069C1.59285 12.9066 0.75 10.8717 0.75 8.75C0.75 6.62827 1.59285 4.59344 3.09315 3.09315C4.59344 1.59285 6.62827 0.75 8.75 0.75C10.8717 0.75 12.9066 1.59285 14.4069 3.09315C15.9071 4.59344 16.75 6.62827 16.75 8.75Z" stroke="currentColor" fill="none" stroke-width="1.5" stroke-miterlimit="10" stroke-linecap="round" stroke-linejoin="round"/>
    </symbol>

    <symbol id="icon-settings" viewBox="0 0 24 24">
        <path d="M12 15C13.6569 15 15 13.6569 15 12C15 10.3431 13.6569 9 12 9C10.3431 9 9 10.3431 9 12C9 13.6569 10.3431 15 12 15Z" stroke="currentColor" fill="none" stroke-width="1.5"/>
        <path d="M13.765 2.152C13.398 2 12.932 2 12 2C11.068 2 10.602 2 10.235 2.152C9.99218 2.25251 9.77155 2.3999 9.58572 2.58572C9.3999 2.77155 9.25251 2.99218 9.152 3.235C9.06 3.458 9.023 3.719 9.009 4.098C9.00249 4.37193 8.9266 4.63973 8.78844 4.87635C8.65028 5.11298 8.45436 5.31069 8.219 5.451C7.97981 5.58477 7.71059 5.65567 7.43653 5.65707C7.16248 5.65847 6.89255 5.59032 6.652 5.459C6.316 5.281 6.073 5.183 5.832 5.151C5.30632 5.08187 4.7747 5.22431 4.354 5.547C4.04 5.79 3.806 6.193 3.34 7C2.874 7.807 2.64 8.21 2.589 8.605C2.55464 8.86545 2.57192 9.13012 2.63987 9.38389C2.70781 9.63767 2.82509 9.87556 2.985 10.084C3.133 10.276 3.34 10.437 3.661 10.639C4.134 10.936 4.438 11.442 4.438 12C4.438 12.558 4.134 13.064 3.661 13.36C3.34 13.563 3.132 13.724 2.985 13.916C2.82509 14.1244 2.70781 14.3623 2.63987 14.6161C2.57192 14.8699 2.55464 15.1345 2.589 15.395C2.641 15.789 2.874 16.193 3.339 17C3.806 17.807 4.039 18.21 4.354 18.453C4.56244 18.6129 4.80033 18.7302 5.05411 18.7981C5.30788 18.8661 5.57255 18.8834 5.833 18.849C6.073 18.817 6.316 18.719 6.652 18.541C6.89255 18.4097 7.16248 18.3415 7.43653 18.3429C7.71059 18.3443 7.97981 18.4152 8.219 18.549C8.702 18.829 8.989 19.344 9.009 19.902C9.023 20.282 9.059 20.542 9.152 20.765C9.25251 21.0078 9.3999 21.2284 9.58572 21.4143C9.77155 21.6001 9.99218 21.7475 10.235 21.848C10.602 22 11.068 22 12 22C12.932 22 13.398 22 13.765 21.848C14.0078 21.7475 14.2284 21.6001 14.4143 21.4143C14.6001 21.2284 14.7475 21.0078 14.848 20.765C14.94 20.542 14.977 20.282 14.991 19.902C15.011 19.344 15.298 18.828 15.781 18.549C16.0202 18.4152 16.2894 18.3443 16.5635 18.3429C16.8375 18.3415 17.1075 18.4097 17.348 18.541C17.684 18.719 17.927 18.817 18.167 18.849C18.4275 18.8834 18.6921 18.8661 18.9459 18.7981C19.1997 18.7302 19.4376 18.6129 19.646 18.453C19.961 18.211 20.194 17.807 20.66 17C21.126 16.193 21.36 15.79 21.411 15.395C21.4454 15.1345 21.4281 14.8699 21.3601 14.6161C21.2922 14.3623 21.1749 14.1244 21.015 13.916C20.867 13.724 20.66 13.563 20.339 13.361C20.1049 13.2184 19.9109 13.0187 19.775 12.7807C19.6391 12.5427 19.5658 12.2741 19.562 12C19.562 11.442 19.866 10.936 20.339 10.64C20.66 10.437 20.868 10.276 21.015 10.084C21.1749 9.87556 21.2922 9.63767 21.3601 9.38389C21.4281 9.13012 21.4454 8.86545 21.411 8.605C21.359 8.211 21.126 7.807 20.661 7C20.194 6.193 19.961 5.79 19.646 5.547C19.4376 5.38709 19.1997 5.26981 18.9459 5.20187C18.6921 5.13392 18.4275 5.11664 18.167 5.151C17.927 5.183 17.684 5.281 17.347 5.459C17.1066 5.59014 16.8368 5.6582 16.563 5.6568C16.2891 5.6554 16.0201 5.58459 15.781 5.451C15.5456 5.31069 15.3497 5.11298 15.2116 4.87635C15.0734 4.63973 14.9975 4.37193 14.991 4.098C14.977 3.718 14.941 3.458 14.848 3.235C14.7475 2.99218 14.6001 2.77155 14.4143 2.58572C14.2284 2.3999 14.0078 2.25251 13.765 2.152Z" stroke="currentColor" fill="none" stroke-width="1.5"/>
    </symbol>


</svg>